<svg height="407" viewBox="0 0 291 407" width="291" xmlns="http://www.w3.org/2000/svg"><g fill="none" fill-rule="evenodd" stroke="#b1def1" stroke-width="3" transform="translate(2 2)"><path d="m73.8812376 267.342382c0 37.462346 31.8257484 67.545533 70.4706574 67.545533 39.214172 0 67.062077-31.219288 67.062077-69.248186 0-38.029897-28.416168-70.950838-71.039921-70.950838-14.207584 0-27.847905 2.837754-42.6237521 9.649362-10.7980039 14.757319-23.8690613 36.327245-23.8690613 63.004129z"/><path d="m217.664869 0-75.017764 126.576806h5.11537c75.586028 0 139.237525 57.327622 139.237525 136.791721 0 77.194896-64.21976 139.631473-141.510578 139.631473-74.4495011 0-145.489422-52.787216-145.489422-135.657618 0-39.164999 18.1864279-74.356143 39.2141724-109.547287l93.7724556-157.795095z"/></g></svg>