<svg width="21" height="21" viewBox="0 0 21 21" fill="none" xmlns="http://www.w3.org/2000/svg">
<path d="M8.54688 0.34375C4.01641 0.34375 0.34375 4.01641 0.34375 8.54687C0.34375 13.0773 4.01641 16.75 8.54688 16.75C10.4609 16.75 12.2211 16.0945 13.6164 14.9969L18.9898 20.3703C19.0805 20.461 19.1882 20.5329 19.3067 20.582C19.4252 20.6311 19.5522 20.6564 19.6805 20.6564C19.8087 20.6564 19.9357 20.6311 20.0542 20.582C20.1727 20.5329 20.2804 20.461 20.3711 20.3703C20.4618 20.2796 20.5337 20.1719 20.5828 20.0534C20.6319 19.935 20.6572 19.8079 20.6572 19.6797C20.6572 19.5514 20.6319 19.4244 20.5828 19.3059C20.5337 19.1874 20.4618 19.0798 20.3711 18.9891L14.9969 13.6156C16.1351 12.1715 16.7528 10.3856 16.75 8.54687C16.75 4.01641 13.0773 0.34375 8.54688 0.34375ZM2.29688 8.54687C2.29688 6.88927 2.95536 5.29956 4.12746 4.12746C5.29956 2.95536 6.88927 2.29687 8.54688 2.29687C10.2045 2.29687 11.7942 2.95536 12.9663 4.12746C14.1384 5.29956 14.7969 6.88927 14.7969 8.54687C14.7969 10.2045 14.1384 11.7942 12.9663 12.9663C11.7942 14.1384 10.2045 14.7969 8.54688 14.7969C6.88927 14.7969 5.29956 14.1384 4.12746 12.9663C2.95536 11.7942 2.29688 10.2045 2.29688 8.54687V8.54687Z" fill="white"/>
</svg>
