<svg width="19" height="23" viewBox="0 0 19 23" fill="none" xmlns="http://www.w3.org/2000/svg">
<path d="M1.88219 8.54834C1.90146 8.30818 2.01048 8.0841 2.18755 7.92071C2.36461 7.75732 2.59672 7.66662 2.83764 7.66667H16.1623C16.4032 7.66662 16.6353 7.75732 16.8124 7.92071C16.9895 8.0841 17.0985 8.30818 17.1178 8.54834L17.9582 19.0133C17.9794 19.2771 17.9457 19.5423 17.8594 19.7924C17.773 20.0425 17.6358 20.272 17.4564 20.4664C17.2769 20.6609 17.0592 20.8161 16.8169 20.9222C16.5745 21.0284 16.3128 21.0833 16.0483 21.0833H2.95168C2.68711 21.0833 2.42542 21.0284 2.18308 20.9222C1.94075 20.8161 1.72302 20.6609 1.5436 20.4664C1.36419 20.272 1.22697 20.0425 1.1406 19.7924C1.05422 19.5423 1.02056 19.2771 1.04173 19.0133L1.88123 8.54834H1.88219Z" stroke="white" stroke-width="2" stroke-linecap="round" stroke-linejoin="round"/>
<path d="M13.3333 10.5417V5.75001C13.3333 4.73334 12.9294 3.75832 12.2105 3.03943C11.4916 2.32054 10.5166 1.91667 9.49996 1.91667C8.4833 1.91667 7.50827 2.32054 6.78938 3.03943C6.07049 3.75832 5.66663 4.73334 5.66663 5.75001V10.5417" stroke="white" stroke-width="2" stroke-linecap="round" stroke-linejoin="round"/>
</svg>
