<svg width="20" height="21" viewBox="0 0 20 21" fill="none" xmlns="http://www.w3.org/2000/svg">
<path d="M10 0.166672C7.01325 0.166672 4.58333 2.59659 4.58333 5.58334C4.58333 8.57009 7.01325 11 10 11C12.9868 11 15.4167 8.57009 15.4167 5.58334C15.4167 2.59659 12.9868 0.166672 10 0.166672ZM10 8.83334C8.20817 8.83334 6.75 7.37517 6.75 5.58334C6.75 3.79151 8.20817 2.33334 10 2.33334C11.7918 2.33334 13.25 3.79151 13.25 5.58334C13.25 7.37517 11.7918 8.83334 10 8.83334ZM19.75 20.75V19.6667C19.75 15.4861 16.3473 12.0833 12.1667 12.0833H7.83333C3.65167 12.0833 0.25 15.4861 0.25 19.6667V20.75H2.41667V19.6667C2.41667 16.6799 4.84658 14.25 7.83333 14.25H12.1667C15.1534 14.25 17.5833 16.6799 17.5833 19.6667V20.75H19.75Z" fill="white"/>
</svg>
