<svg xmlns="http://www.w3.org/2000/svg" xmlns:xlink="http://www.w3.org/1999/xlink" width="150" height="85" viewBox="0 0 150 85">
  <defs>
    <polygon id="full_logomark-a" points=".211 .28 5.465 .28 5.465 4.089 .211 4.089"/>
    <polygon id="full_logomark-c" points="0 84.794 149.048 84.794 149.048 0 0 0"/>
  </defs>
  <g fill="none" fill-rule="evenodd">
    <path fill="#FFF" d="M139.499224,78.3307154 L139.960673,78.3307154 C140.178766,77.3848914 140.279498,77.231764 140.743185,77.231764 L140.890285,77.231764 L140.890285,80.0994794 L140.295807,80.0994794 L140.295807,80.5996105 L142.441878,80.5996105 L142.441878,80.0994794 L141.838126,80.0994794 L141.838126,77.231764 L141.984907,77.231764 C142.455629,77.231764 142.556361,77.3848914 142.769977,78.3307154 L143.226629,78.3307154 L143.226629,76.7975318 L139.499224,76.7975318 L139.499224,78.3307154 Z"/>
    <g transform="translate(143.583 76.517)">
      <mask id="full_logomark-b" fill="#fff">
        <use xlink:href="#full_logomark-a"/>
      </mask>
      <polygon fill="#FFF" points="5.465 .783 5.465 .28 3.663 .28 2.89 2.625 2.872 2.625 2.052 .28 .211 .28 .211 .783 .709 .783 .709 3.582 .211 3.582 .211 4.082 1.708 4.082 1.708 3.582 1.224 3.582 1.224 .904 1.276 .904 2.447 4.089 2.835 4.089 3.955 .904 4.008 .904 4.008 3.582 3.528 3.582 3.528 4.082 5.465 4.082 5.465 3.582 4.956 3.582 4.956 .783" mask="url(#full_logomark-b)"/>
    </g>
    <path fill="#FFF" d="M3.49335424 83.7541929L2.68078267 83.7541929 2.68078267 77.8452603 3.39230245 77.8452603C5.31580422 77.8452603 6.09383911 78.7044925 6.09383911 80.7174326 6.09383911 82.9544925 5.33882868 83.7541929 3.49335424 83.7541929M3.35776576 76.9885749L.0000319784169 76.9885749.0000319784169 77.8570393 1.18195427 77.8570393 1.18195427 83.7427322.0000319784169 83.7427322.0000319784169 84.6111966 3.44506683 84.6111966C6.4334499 84.6111966 7.79221283 82.8838184 7.79221283 80.7174326 7.79221283 78.4966086 6.32568263 76.9885749 3.35776576 76.9885749M14.4604802 80.4629419L13.3198101 80.4629419 13.3198101 77.8444963 14.566009 77.8444963C15.6312101 77.8444963 15.9500349 78.2717247 15.9500349 79.0828858 15.9500349 80.0013315 15.569172 80.4629419 14.4604802 80.4629419M17.6372162 83.7967247C17.4258388 83.7967247 17.3251068 83.6572865 17.2880119 83.2459757L17.2445212 82.5583352C17.1824831 81.715339 16.7785957 81.1098333 15.4841094 80.9016311L15.4841094 80.810264C17.090705 80.5909195 17.6026795 79.7912191 17.6026795 78.9437659 17.6026795 77.981706 16.9186612 76.9874925 14.5938302 76.9874925L10.6365011 76.9874925 10.6365011 77.8581854 11.8232202 77.8581854 11.8232202 83.7441966 10.6365011 83.7441966 10.6365011 84.6101142 14.5065292 84.6101142 14.5065292 83.7441966 13.3198101 83.7441966 13.3198101 81.274103 14.4972554 81.274103C15.4978601 81.274103 15.6814162 81.6443464 15.6929284 82.457736L15.7114759 83.1616124C15.7297036 84.2994026 16.3219439 84.747324 17.2445212 84.747324 18.0433421 84.747324 18.4862431 84.2150393 18.7203252 83.4494026L18.1373586 83.2208258C17.9630762 83.636912 17.8252493 83.7967247 17.6372162 83.7967247M25.9333769 77.8573895L27.0625348 77.8573895 27.0625348 81.5862472C27.0625348 82.4317903 26.9592445 82.955161 26.5921323 83.3228577 26.2707492 83.6383446 25.8668618 83.8210787 25.2675862 83.8210787 23.9548722 83.8210787 23.2708539 83.2907041 23.2708539 81.8399738L23.2708539 77.8573895 24.3769873 77.8573895 24.3769873 76.9866966 20.700109 76.9866966 20.700109 77.8573895 21.769787 77.8573895 21.769787 82.1621461C21.769787 83.7545431 22.8257143 84.7942809 24.925737 84.7942809 26.9800305 84.7942809 28.0218873 83.5536629 28.0218873 82.1417715L28.0218873 77.8573895 29.0547902 77.8573895 29.0547902 76.9866966 25.9333769 76.9866966 25.9333769 77.8573895z"/>
    <polygon fill="#FFF" points="37.092 77.858 38.242 77.858 38.242 82.458 38.127 82.458 34.542 76.988 31.691 76.988 31.691 77.858 32.789 77.858 32.789 83.742 31.691 83.742 31.691 84.61 34.87 84.61 34.87 83.742 33.732 83.742 33.732 78.644 33.84 78.644 37.852 84.761 39.171 84.761 39.171 77.858 40.271 77.858 40.271 76.988 37.092 76.988"/>
    <polygon fill="#FFF" points="47.576 80.069 49.819 77.857 50.776 77.857 50.776 76.989 47.638 76.989 47.638 77.845 48.621 77.845 45.609 80.917 45.609 77.845 46.67 77.845 46.67 76.989 42.926 76.989 42.926 77.857 44.111 77.857 44.111 83.743 42.926 83.743 42.926 84.611 46.658 84.611 46.658 83.754 45.609 83.754 45.609 81.979 46.573 81.042 48.485 83.754 47.57 83.754 47.57 84.611 51.157 84.611 51.157 83.743 50.264 83.743"/>
    <path fill="#FFF" d="M62.5113455 83.7545112L60.4410627 83.7545112 60.4410627 81.1109157 61.1778455 81.1109157C61.9350944 81.1109157 62.0569321 81.229661 62.2222606 82.2601667L62.9679972 82.2601667 62.9679972 79.1982566 62.2222606 79.1982566C62.0316692 80.2061592 61.9350944 80.3249045 61.1778455 80.3249045L60.4410627 80.3249045 60.4410627 77.8455787 62.5596329 77.8455787C63.4911641 77.8455787 63.6337879 78.1610655 64.0053771 79.5707285L64.7491951 79.5707285 64.7491951 76.9866648 57.7532768 76.9866648 57.7532768 77.8570393 58.9447926 77.8570393 58.9447926 83.7430506 57.7532768 83.7430506 57.7532768 84.6089682 64.8502469 84.6089682 64.8502469 81.7711779 64.1112257 81.7711779C63.7485904 83.3705787 63.6085249 83.7545112 62.5113455 83.7545112M72.0550482 83.7534288L70.5654935 83.7534288 70.5654935 77.8444963 71.8005 77.8444963 71.8005 76.9878109 67.8777076 76.9878109 67.8777076 77.8581854 69.0689036 77.8581854 69.0689036 83.7441966 67.8777076 83.7441966 67.8777076 84.6101142 74.4166542 84.6101142 74.4166542 81.6443464 73.7166467 81.6443464C73.1611816 83.5429981 72.9846607 83.7534288 72.0550482 83.7534288M81.946676 83.7545112L79.8786318 83.7545112 79.8786318 81.1109157 80.6086991 81.1109157C81.3774602 81.1109157 81.499298 81.229661 81.6575911 82.2601667L82.4036476 82.2601667 82.4036476 79.1982566 81.6575911 79.1982566C81.4737153 80.2061592 81.3774602 80.3249045 80.6086991 80.3249045L79.8786318 80.3249045 79.8786318 77.8455787 81.9972019 77.8455787C82.924576 77.8455787 83.06688 78.1610655 83.438789 79.5707285L84.1822872 79.5707285 84.1822872 76.9866648 77.1911657 76.9866648 77.1911657 77.8570393 78.3775649 77.8570393 78.3775649 83.7430506 77.1911657 83.7430506 77.1911657 84.6089682 84.2878159 84.6089682 84.2878159 81.7711779 83.5487947 81.7711779C83.1813627 83.3705787 83.046094 83.7545112 81.946676 83.7545112M90.8278499 80.7385712L89.9992891 80.7385712 89.9992891 77.8460243 90.8278499 77.8460243C92.13161 77.8460243 92.4916869 78.4238333 92.4916869 79.2464551 92.4916869 80.1626723 92.1773391 80.7385712 90.8278499 80.7385712M90.8646251 76.9867921L87.3207769 76.9867921 87.3207769 77.857485 88.5004607 77.857485 88.5004607 83.7431779 87.3207769 83.7431779 87.3207769 84.6094139 91.3052877 84.6094139 91.3052877 83.7431779 89.9992891 83.7431779 89.9992891 81.5634213 90.9448909 81.5634213C93.3503074 81.5634213 94.1443315 80.3937959 94.1443315 79.2349944 94.1443315 78.0080655 93.2585294 76.9867921 90.8646251 76.9867921"/>
    <polygon fill="#FFF" points="101.735 77.857 102.805 77.857 102.805 80.254 99.52 80.254 99.52 77.857 100.606 77.857 100.606 76.987 96.828 76.987 96.828 77.857 98.019 77.857 98.019 83.743 96.828 83.743 96.828 84.609 100.606 84.609 100.606 83.743 99.52 83.743 99.52 81.063 102.805 81.063 102.805 83.743 101.735 83.743 101.735 84.609 105.49 84.609 105.49 83.743 104.301 83.743 104.301 77.857 105.49 77.857 105.49 76.987 101.735 76.987"/>
    <path fill="#FFF" d="M110.52988,81.2639794 L111.615548,78.2593727 L111.6568,78.2593727 L112.680429,81.2639794 L110.52988,81.2639794 Z M112.701215,76.93853 L111.21166,76.93853 L108.640915,83.7433052 L107.805319,83.7433052 L107.805319,84.6089045 L110.607908,84.6089045 L110.607908,83.7433052 L109.64152,83.7433052 L110.247511,82.03853 L112.949048,82.03853 L113.545765,83.7433052 L112.400618,83.7433052 L112.400618,84.6089045 L116.185264,84.6089045 L116.185264,83.7433052 L115.184659,83.7433052 L112.701215,76.93853 Z"/>
    <polygon fill="#FFF" points="123.884 77.858 125.03 77.858 125.03 82.458 124.919 82.458 121.332 76.988 118.49 76.988 118.49 77.858 119.585 77.858 119.585 83.742 118.49 83.742 118.49 84.61 121.665 84.61 121.665 83.742 120.529 83.742 120.529 78.644 120.63 78.644 124.642 84.761 125.973 84.761 125.973 77.858 127.061 77.858 127.061 76.988 123.884 76.988"/>
    <path fill="#FFF" d="M129.801098 79.849573L130.505902 79.849573C131.017557 78.0515206 131.23565 77.724573 132.220265 77.724573L132.633426 77.724573 132.633426 83.7430187 131.343417 83.7430187 131.343417 84.6089363 135.417467 84.6089363 135.417467 83.7430187 134.127458 83.7430187 134.127458 77.724573 134.549893 77.724573C135.534508 77.724573 135.743647 78.0515206 136.255302 79.849573L136.964583 79.849573 136.964583 76.986633 129.801098 76.986633 129.801098 79.849573zM118.869724 34.3737135L118.869724 33.9671779C118.869724 33.9076461 118.814721 33.855118 118.748206 33.855118L117.476424 33.855118C117.788853 33.4597247 118.23847 32.9022903 118.491099 32.541279 118.718146 32.2143315 118.897225 31.9676086 118.897225 31.5862228 118.897225 30.9485637 118.410514 30.4092753 117.563725 30.4092753 116.863718 30.4092753 116.402589 30.9899494 116.402589 30.9899494 116.353982 31.0377022 116.370291 31.1109232 116.407066 31.1430768L116.684638 31.4286386C116.735164 31.4763914 116.804238 31.4763914 116.847728 31.4286386 116.990032 31.2799682 117.228591 31.0787697 117.510961 31.0787697 117.937873 31.0787697 118.142215 31.3506423 118.142215 31.6158296 118.142215 31.8170281 118.025174 32.047515 117.836821 32.2716348 117.446684 32.7950056 116.696151 33.7615225 116.301217 34.2345936L116.301217 34.3737135C116.301217 34.42847 116.353982 34.4835449 116.41634 34.4835449L118.748206 34.4835449C118.814721 34.4835449 118.869724 34.42847 118.869724 34.3737135M121.545262 31.1096816C122.008949 31.1096816 122.263817 31.6056742 122.263817 32.4782772 122.263817 33.353427 122.008949 33.847191 121.545262 33.847191 121.086052 33.847191 120.826707 33.353427 120.826707 32.4782772 120.826707 31.6056742 121.086052 31.1096816 121.545262 31.1096816M121.545262 34.5462921C122.497899 34.5462921 123.04409 33.7691948 123.04409 32.4782772 123.04409 31.1873596 122.497899 30.4083521 121.545262 30.4083521 120.59966 30.4083521 120.05091 31.1873596 120.05091 32.4782772 120.05091 33.7691948 120.59966 34.5462921 121.545262 34.5462921M124.214692 31.6610356L124.73594 31.5422903 124.73594 34.3733951C124.73594 34.4281517 124.783908 34.4829082 124.848185 34.4829082L125.357921 34.4829082C125.417401 34.4829082 125.460891 34.4281517 125.460891 34.3733951L125.460891 30.5824588C125.460891 30.5254738 125.417401 30.4662603 125.357921 30.4662603L124.94476 30.4662603 124.088377 31.1882828C124.067911 31.2064288 124.051922 31.2452678 124.061196 31.293339L124.10021 31.5833577C124.104686 31.6358858 124.164166 31.6702678 124.214692 31.6610356M129.266131 31.5861273C129.266131 30.9487865 128.788693 30.4094981 127.937108 30.4094981 127.225588 30.4094981 126.76414 30.9898539 126.76414 30.9898539 126.722887 31.0379251 126.739196 31.1108277 126.780449 31.1429813L127.060579 31.4285431C127.108547 31.4766142 127.175062 31.4766142 127.221111 31.4285431 127.363415 31.2798727 127.599736 31.0789925 127.879867 31.0789925 128.306778 31.0789925 128.508562 31.3508652 128.508562 31.6157341 128.508562 31.8169326 128.396318 32.0477378 128.214681 32.2715393 127.813351 32.7949101 127.065056 33.761427 126.672361 34.2344981L126.672361 34.373618C126.672361 34.4286929 126.720649 34.4834494 126.791961 34.4834494L129.121269 34.4834494C129.188104 34.4834494 129.238629 34.4286929 129.238629 34.373618L129.238629 33.9670824C129.238629 33.9075506 129.188104 33.8550225 129.121269 33.8550225L127.84533 33.8550225C128.157439 33.4599476 128.612172 32.9021948 128.859685 32.5411835 129.093767 32.2145543 129.266131 31.9678315 129.266131 31.5861273M49.1094467 4.26085581C48.3128644 4.70177341 46.7110655 5.81250375 45.4920482 7.7226161 44.2391338 9.61012547 43.4518252 12.1712678 43.1211684 14.6206685 42.5177357 19.5653127 43.0799162 23.972897 42.9740677 23.9617547 42.8733357 23.9525225 43.4563022 28.4148633 42.0745148 32.9778034 40.8123267 37.6209682 37.3212429 41.7016049 35.966957 42.7095075 34.7735224 43.74447 33.7566088 44.4391142 32.7054782 44.9669419 31.6680984 45.4740768 30.6054556 45.9449195 29.2259067 45.7825599 30.5344635 46.2830094 31.82863 46.0592079 33.0108721 45.6797322 34.2020681 45.2754251 35.3839904 44.6014738 36.6576908 43.4955187 38.115267 42.4191704 41.7646439 38.144339 43.0821547 33.2796011 44.5326957 28.4514738 43.9267047 23.8929906 44.0232795 23.9340581 44.1265698 23.9366049 43.5870939 19.4809494 44.1655835 14.769339 44.4892051 12.418309 45.2397385 10.0118858 46.3804086 8.2937397 47.4958158 6.54821536 48.9073432 5.57692322 49.6418874 5.17038764 52.3917115 3.70564981 54.1930557 3.18227903 56.9061046 2.9081779 54.2026492 2.51278464 52.113819 2.67737266 49.1094467 4.26085581M67.7862173 2.22435768C68.9588659 2.08269101 72.4454726 1.4246573 75.633401 1.15947004 78.8331614.839526217 81.6722053 1.34220412 81.6632513 1.36990075 81.6376686 1.37435768 84.5755258 1.77643633 87.1277232 3.63433895 89.7627448 5.38686704 91.4819045 8.47138015 91.7067127 9.54295318 92.3334897 11.5355187 92.6273714 12.6825412 92.8614534 14.4990581 93.2973192 12.7258371 93.3686311 11.3550131 92.7028404 9.21409551 92.4457339 8.00085581 90.5845901 4.65561236 87.7362725 2.77287828 84.9679009.773308989 81.8234632.346080524 81.8605582.339395131 81.8672736.307241573 78.8331614-.222814607 75.5531352.108589888 72.2663935.382691011 68.7938572 1.04072472 67.6324011 1.18939513 65.4933648 1.5090206 64.3111227 1.83596816 62.5142555 2.26319663 64.3478979 2.50291573 65.6286335 2.53284082 67.7862173 2.22435768M79.2608088 22.6659026C80.1398955 21.658 80.3234516 20.7350974 80.3234516 20.7532434 80.3167361 20.7532434 80.6288455 19.9147041 80.5300322 18.6123258 80.4452894 17.3077191 79.862003 15.6421011 78.8981736 14.1544419 76.9679563 11.0880749 73.6306887 9.05221348 72.655347 8.33942322 70.7663819 7.03226966 69.5339337 6.52513483 67.8352402 5.62483521 69.1479542 7.08034082 70.1878923 7.88226966 72.0560715 9.20311236 73.0432452 9.91144569 76.2516398 11.9151536 78.0030977 14.7188801 78.8888998 16.1011648 79.410148 17.5932809 79.4811401 18.6944607 79.5639642 19.7981873 79.3042994 20.4676816 79.3135732 20.4654532 79.3135732 20.456221 79.1783045 21.1464082 78.4690232 21.9734869 77.7575034 22.8097978 76.4102527 23.6346479 74.8679337 24.3270637 71.7970463 25.6908839 68.2621521 27.1511648 67.238523 27.9715581 65.2830428 29.2828502 64.4362543 30.2815206 63.095719 31.6797228 64.8331064 30.8115768 65.9395597 30.0803221 67.8099773 28.8533933 68.7533406 28.0903034 72.145611 26.6895543 75.3201085 25.2843483 76.889929 24.5693296 78.3977113 23.6804906 79.2608088 22.6659026"/>
    <path fill="#FFF" d="M54.9842337,13.1975712 C54.5387743,13.0695936 52.3009247,13.5152865 52.3172337,13.6384888 C52.3217107,13.6454925 51.7595301,13.8396873 51.2382819,14.2624588 C50.6943291,14.6667659 50.3249784,15.3292566 50.2284035,15.5511479 C50.0563596,15.9646873 50.1781974,16.2750805 50.4372226,16.6500993 C50.836633,16.3941442 51.0502488,16.2798558 51.1855176,15.9850618 C51.2661032,15.8367097 51.5161744,15.3773277 51.9063111,15.0825337 C52.2782201,14.776279 52.7166442,14.6097809 52.7166442,14.6072341 C52.6776305,14.5180955 54.5525251,14.1503989 54.970483,14.2417659 C55.3331182,14.2417659 55.5419373,14.0816348 55.8975373,13.7871592 C55.6244416,13.4191442 55.3951564,13.2157172 54.9842337,13.1975712"/>
    <path fill="#FFF" d="M54.6243166 14.5874007C54.5280616 14.7427566 53.6397012 15.1289176 53.6006875 15.1085431 53.6051645 15.1289176 52.5700231 15.3896479 52.3589656 15.4167079 52.1616587 15.4533184 52.0743576 15.6478315 51.9480429 16.0040674 52.1661357 16.3125506 52.3177134 16.4749101 52.5265325 16.4475318 52.7721267 16.4405281 53.9380598 16.1253596 53.928786 16.1024382 53.9083199 16.1594232 55.1314943 15.6522884 55.308335 15.3896479 55.4874141 15.2202846 55.4551159 14.9872509 55.3291209 14.6377004 54.9594504 14.5393296 54.7666206 14.4823446 54.6243166 14.5874007M52.9146865 30.7156255C52.402712 31.7801948 51.227825 35.0980599 50.5527606 38.2354195 49.7977502 41.3794644 49.7104491 44.3108502 49.6506495 44.2879288 49.6944599 44.2720112 49.1780085 47.1900262 49.4949146 50.4391273 49.6624815 53.5924045 50.1533502 57.1111498 50.5665113 58.2422547 51.2092775 60.3398764 52.0378383 61.4891273 53.527393 62.5285468 52.5312653 61.0138277 52.1801423 59.9260187 51.5786282 57.9611498 51.1977653 56.9007191 50.7273628 53.5421049 50.5438067 50.3522172 50.2432095 47.2470112 50.7363167 44.409221 50.6953844 44.3999888 50.7638182 44.3955318 50.8511192 41.5096704 51.5882218 38.4684532 52.2559311 35.3839401 53.4033167 32.1437528 53.882993 31.1291648 54.7713534 29.2556629 55.069712 28.0968614 56.3366969 26.8129476 54.6338462 27.5645768 53.8212746 28.7848202 52.9146865 30.7156255M64.7292086 44.554294C64.3483456 42.1004363 63.2281417 39.5889569 62.7714899 38.8169532 62.0458996 37.4162041 61.4539791 36.6209607 60.5013421 35.6156049 60.8847633 36.9705112 61.0983791 37.8342004 61.8441158 39.3126273 62.2710276 40.0368783 63.3221582 42.4019157 63.6803165 44.7440318 64.1001931 47.0609981 64.0659762 49.2407547 64.0797269 49.2362978 64.0797269 49.2362978 64.0979546 51.3975899 63.8686694 53.7900056 63.6758395 56.182103 63.2901798 58.7572528 63.1178161 59.6050243 62.812742 61.1655861 62.7714899 62.0728895 62.6634028 63.4644064 63.4116978 62.2852303 63.8248589 61.4056236 64.150719 59.7992191 64.3435488 58.9288446 64.7340053 56.2919345 64.9220384 53.8769157 65.1538819 51.4571217 65.1263805 49.2267472 65.1263805 49.229294 65.1193452 49.229294 65.1653942 46.9900056 64.7292086 44.554294M89.839461 52.2432603C90.7620383 49.5379045 91.1317088 46.9261442 91.1086844 46.9216873 91.1179581 46.9353764 91.5630977 44.2895524 91.0926951 41.403691 90.6382818 38.524515 89.5778775 36.3584476 89.208207 35.396706 88.5011642 33.6257135 87.7899642 31.9826985 86.8693056 30.6551704 87.4158168 32.4376236 87.9274714 34.0163315 88.6092513 35.7688596 88.9626128 36.7079981 89.6213682 38.8466873 90.0438031 41.5657322 90.4937394 44.2733165 90.069066 46.7870243 90.069066 46.7822491 90.0872937 46.7822491 89.7291355 49.2704888 88.8295826 51.921088 87.9668049 54.5716873 86.7682538 57.4050206 86.4174506 58.3804513 85.9307391 59.6713689 85.3685585 60.3777921 85.1917179 61.3920618 85.0813923 62.5553202 85.1619779 62.324515 85.3177128 62.8271929 86.2038348 61.4719682 86.7225247 60.5057697 87.3950308 58.75547 87.7531891 57.8048708 88.9514204 54.9600768 89.839461 52.2432603M113.56751 43.4899794C112.468092 42.2356723 111.960915 41.3054476 110.912023 39.7038184 110.313067 38.869736 108.912732 36.0889307 108.210486 33.2718333 107.455475 30.4840243 106.778492 27.8862715 106.75291 27.8907285 106.718693 27.9044176 106.11494 25.2630506 104.627624 22.6261404 103.213858 19.904867 100.512322 17.818706 99.3508655 17.4236311 97.287618 16.7952041 96.0254299 17.1243801 94.5102925 17.796103 96.1677339 17.7684064 97.2783443 17.8804663 98.9770378 18.4012903 99.828623 18.6779382 102.403525 20.6154288 103.712082 23.1425075 105.105062 25.6126011 105.71553 28.2036685 105.740793 28.1877509 105.770852 28.1762903 106.418096 30.7148296 107.189095 33.5573951 107.909889 36.4181067 109.376739 39.386103 110.028459 40.2660281 111.114126 41.9246423 112.052693 42.7679569 113.56751 43.4899794M102.247662 56.0156049C101.437329 55.0376273 100.978439 54.3910543 100.099352 53.3035637 99.6059253 52.7346685 98.2631516 50.8038633 97.4553768 48.8409045 96.6450437 46.8804925 96.2939207 44.9659232 96.3054329 44.9659232 96.3054329 44.9659232 95.912738 43.057721 95.912738 40.9304925 95.9587869 38.8054925 96.1010909 36.3790131 95.9862883 35.5563914 95.8647703 34.0553614 95.4675984 33.1824401 94.7033142 32.1815412 94.8456182 33.4428521 94.834106 34.2199494 94.9325995 35.6226086 95.0336513 36.3837884 94.8961441 38.7026648 94.8593689 40.9330393 94.8593689 43.1720094 95.2792455 45.1623464 95.2792455 45.1623464 95.2610178 45.1553427 95.6188563 47.1730581 96.4797153 49.24553 97.333539 51.3291442 98.7290772 53.3424026 99.2800653 53.9615974 100.248372 55.1289944 101.060943 55.5928333 102.247662 56.0156049M23.0732593 34.3717079L23.0732593 33.8874944C23.0732593 33.830191 23.0342456 33.7776629 22.969969 33.7776629L21.2095571 33.7776629 21.2095571 32.742382 22.6760873 32.742382C22.735887 32.742382 22.7908898 32.6990861 22.7908898 32.6328689L22.7908898 32.1416517C22.7908898 32.0798914 22.735887 32.0318202 22.6760873 32.0318202L21.2095571 32.0318202 21.2095571 31.058618 22.969969 31.058618C23.0342456 31.058618 23.0732593 31.0060899 23.0732593 30.9465581L23.0732593 30.4668015C23.0732593 30.4072697 23.0342456 30.3525131 22.969969 30.3525131L20.5508017 30.3525131C20.4865251 30.3525131 20.4427147 30.4072697 20.4427147 30.4668015L20.4427147 34.3717079C20.4427147 34.4290112 20.4865251 34.4837678 20.5508017 34.4837678L22.969969 34.4837678C23.0342456 34.4837678 23.0732593 34.4290112 23.0732593 34.3717079M25.4157422 33.8651142C25.0256056 33.8651142 24.5481678 33.5177921 24.5206664 33.4996461 24.467902 33.4585787 24.3646117 33.4585787 24.3163243 33.5407135L24.1075052 33.9087285C24.0521826 34.002324 24.0729685 34.0319307 24.1327682 34.0822303 24.2498092 34.1987472 24.6859948 34.5460693 25.4362084 34.5460693 26.2718045 34.5460693 26.8042451 33.9816311 26.8042451 33.373897 26.8042451 32.615264 26.1410127 32.2727172 25.5625232 32.0415936 25.0828469 31.8477172 24.8628354 31.6624363 24.8628354 31.3813315 24.8628354 31.1896835 25.0415948 30.9677921 25.3860023 30.9677921 25.7073854 30.9677921 26.1640372 31.2603577 26.2075279 31.2921929 26.2762814 31.3380356 26.3728563 31.2921929 26.4141084 31.2215187L26.641475 30.8856573C26.6827271 30.8216685 26.6667379 30.7258446 26.6024613 30.6844588 26.4854203 30.5975487 26.0217332 30.2960693 25.420539 30.2960693 24.4723789 30.2960693 24.0892775 30.9038034 24.0892775 31.4294026 24.0892775 32.1218184 24.6421843 32.4783727 25.1998879 32.7021742 25.6981117 32.9033727 25.9529797 33.1109382 25.9529797 33.4105075 25.9529797 33.6661442 25.7211361 33.8651142 25.4157422 33.8651142M27.690463 31.0593184L28.5970511 31.0593184 28.5970511 34.3724082C28.5970511 34.4293933 28.6498155 34.4844682 28.7096151 34.4844682L29.258045 34.4844682C29.3200831 34.4844682 29.3754058 34.4293933 29.3754058 34.3724082L29.3754058 31.0593184 30.2819939 31.0593184C30.348509 31.0593184 30.3919996 31.0064719 30.3919996 30.9472584L30.3919996 30.4675019C30.3919996 30.40797 30.348509 30.350985 30.2819939 30.350985L27.690463 30.350985C27.6261864 30.350985 27.5759802 30.40797 27.5759802 30.4675019L27.5759802 30.9472584C27.5759802 31.0064719 27.6261864 31.0593184 27.690463 31.0593184M31.7121326 30.8824101L32.1137816 30.8824101C32.5845039 30.8824101 32.9285916 31.2526536 32.9285916 31.7254064 32.9285916 32.1940206 32.5845039 32.5664925 32.1137816 32.5664925L31.7121326 32.5664925 31.7121326 30.8824101zM31.1336431 33.1856873L32.1598305 33.1856873C32.9653668 33.1856873 33.6241222 32.529882 33.6241222 31.7254064 33.6241222 30.9190206 32.9653668 30.2654438 32.1598305 30.2654438L31.1336431 30.2654438C31.0901524 30.2654438 31.0604125 30.3042828 31.0604125 30.3453502L31.0604125 33.1080094C31.0604125 33.1468483 31.0901524 33.1856873 31.1336431 33.1856873L31.1336431 33.1856873z"/>
    <mask id="full_logomark-d" fill="#fff">
      <use xlink:href="#full_logomark-c"/>
    </mask>
    <polygon fill="#FFF" points="30.923 34.508 33.388 34.508 33.388 34.079 30.923 34.079" mask="url(#full_logomark-d)"/>
  </g>
</svg>
