<svg width="993" height="77" viewBox="0 0 993 77" fill="none" xmlns="http://www.w3.org/2000/svg">
<path d="M928.2 35.3H932.2V16.3H931.2C928.1 16.3 927.4 17.3 926.1 23.6H923.1V13.5H947.6V23.6H944.6C943.2 17.4 942.6 16.3 939.4 16.3H938.5V35.3H942.4V38.6H928.3V35.3H928.2Z" fill="white"/>
<path d="M951.2 35.3H954.5V16.8H951.2V13.5H963.3L968.7 29H968.9L974 13.5H985.8V16.8H982.4V35.3H985.8V38.6H973.1V35.3H976.2V17.6H975.9L968.5 38.7H965.9L958.2 17.6H957.9V35.3H961.1V38.6H951.2V35.3Z" fill="white"/>
<path d="M9.89999 59.3H17.7V20.6H9.89999V14.9H31.9C51.3 14.9 60.9 24.8 60.9 39.4C60.9 53.7 52 65 32.4 65H9.89999V59.3ZM32.8 59.4C44.9 59.4 49.9 54.2 49.9 39.4C49.9 26.1 44.8 20.5 32.2 20.5H27.5V59.4H32.8Z" fill="white"/>
<path d="M97.3 59.3H105.1V65.1H79.7V59.3H87.5V20.6H79.7V14.9H105.7C120.9 14.9 125.4 21.4 125.4 27.8C125.4 33.4 122 38.6 111.5 40.1V40.7C120 42 122.7 46 123 51.6L123.3 56.1C123.5 58.8 124.2 59.7 125.6 59.7C126.8 59.7 127.7 58.6 128.8 55.9L132.7 57.4C131.2 62.4 128.2 65.9 123 65.9C117 65.9 113.1 63 112.9 55.5L112.8 50.8C112.7 45.5 111.5 43 104.9 43H97.2V59.3H97.3ZM104.8 37.8C112 37.8 114.5 34.7 114.5 28.7C114.5 23.4 112.4 20.5 105.5 20.5H97.3V37.7H104.8V37.8Z" fill="white"/>
<path d="M152.7 49V20.6H145.7V14.9H169.8V20.6H162.6V46.8C162.6 56.3 167.1 59.8 175.7 59.8C179.6 59.8 182.2 58.6 184.3 56.5C186.8 54.1 187.4 50.7 187.4 45.1V20.6H180.1V14.9H200.5V20.6H193.7V48.8C193.7 58.1 186.9 66.3 173.4 66.3C159.7 66.3 152.7 59.4 152.7 49Z" fill="white"/>
<path d="M231.9 25.8H231.2V59.4H238.7V65.1H217.9V59.4H225.1V20.6H217.9V14.9H236.6L260.1 50.9H260.7V20.6H253.3V14.9H274.1V20.6H267V66.1H258.2L231.9 25.8Z" fill="white"/>
<path d="M309.2 59.4H316.1V65.1H291.6V59.3H299.4V20.6H291.6V14.9H316.1V20.5H309.2V40.8L329 20.5H322.4V14.9H343V20.6H336.8L322.1 35.2L339.7 59.3H345.5V65.1H322V59.4H328L315.5 41.6L309.2 47.7V59.4Z" fill="white"/>
<path d="M388.9 59.4H396.6V20.6H388.9V14.9H434.7V31.9H429.8C427.4 22.6 426.5 20.6 420.4 20.6H406.5V36.9H411.3C416.3 36.9 416.9 36.1 418.1 29.5H423V49.6H418.1C417 42.8 416.3 42 411.3 42H406.5V59.4H420.1C427.2 59.4 428.2 56.9 430.5 46.4H435.4V65.1H388.9V59.4V59.4Z" fill="white"/>
<path d="M481 14.9V20.5H472.9V59.4H482.7C488.8 59.4 490 58.1 493.6 45.6H498.1V65.1H455.3V59.4H463V20.6H455.3V14.9H481V14.9Z" fill="white"/>
<path d="M516.4 59.4H524.2V20.6H516.4V14.9H562.2V31.9H557.3C554.9 22.6 554 20.6 547.9 20.6H534V36.9H538.8C543.9 36.9 544.5 36.1 545.7 29.5H550.5V49.6H545.7C544.6 42.8 543.8 42 538.8 42H534V59.4H547.6C554.8 59.4 555.7 56.9 558 46.4H562.9V65.1H516.4V59.4Z" fill="white"/>
<path d="M582.8 59.4H590.6V20.6H582.8V14.9H606.1C621.8 14.9 627.6 21.6 627.6 29.7C627.6 37.3 622.4 45 606.6 45H600.4V59.3H609V65H582.8V59.4V59.4ZM605.9 39.6C614.7 39.6 616.8 35.8 616.8 29.8C616.8 24.4 614.4 20.6 605.9 20.6H600.4V39.7H605.9V39.6Z" fill="white"/>
<path d="M645.3 59.4H653.1V20.6H645.3V14.9H670V20.6H662.9V36.4H684.4V20.6H677.4V14.9H702V20.6H694.2V59.4H702V65.1H677.4V59.4H684.4V41.7H662.9V59.4H670V65.1H645.3V59.4Z" fill="white"/>
<path d="M751 48.1H733.3L729.4 59.3H735.8V65H717.4V59.3H722.9L739.7 14.5H749.5L765.8 59.3H772.3V65H747.5V59.3H754.9L751 48.1ZM735.1 43.1H749.2L742.5 23.3H742.2L735.1 43.1Z" fill="white"/>
<path d="M801.4 25.8H800.8V59.4H808.2V65.1H787.4V59.4H794.6V20.6H787.4V14.9H806.1L829.6 50.9H830.3V20.6H822.8V14.9H843.6V20.6H836.4V66.1H827.7L801.4 25.8Z" fill="white"/>
<path d="M871.7 59.4H880.2V19.8H877.5C871.1 19.8 869.7 21.9 866.3 33.7H861.7V14.9H908.6V33.7H904C900.7 21.8 899.2 19.8 892.8 19.8H890V59.4H898.5V65.1H871.8V59.4H871.7Z" fill="white"/>
</svg>
