<svg width="57" height="35" viewBox="0 0 57 35" fill="none" xmlns="http://www.w3.org/2000/svg">
<path fill-rule="evenodd" clip-rule="evenodd" d="M51.4634 17.367C51.4634 17.0267 51.209 16.7387 50.7664 16.7387C50.4005 16.7387 50.1593 17.0486 50.1593 17.0486C50.134 17.0743 50.1426 17.1132 50.1616 17.1304L50.3069 17.2829C50.3331 17.3086 50.3692 17.3086 50.3919 17.2829C50.4663 17.2035 50.5912 17.0962 50.7388 17.0962C50.9619 17.0962 51.0688 17.2414 51.0688 17.3829C51.0688 17.4903 51.0074 17.6135 50.9091 17.7331C50.7052 18.0125 50.3129 18.5287 50.1064 18.7813V18.8556C50.1064 18.885 50.134 18.9142 50.1665 18.9142H51.3853C51.4201 18.9142 51.449 18.885 51.449 18.8556V18.6385C51.449 18.6067 51.4201 18.5786 51.3853 18.5786H50.7207C50.8839 18.3677 51.1189 18.0698 51.251 17.877C51.3698 17.7026 51.4634 17.5709 51.4634 17.367ZM52.8475 18.5744C52.6075 18.5744 52.4719 18.3109 52.4719 17.8436C52.4719 17.3774 52.6075 17.1126 52.8475 17.1126C53.0899 17.1126 53.2231 17.3774 53.2231 17.8436C53.2231 18.3109 53.0899 18.5744 52.8475 18.5744ZM52.8475 16.738C52.3532 16.738 52.0664 17.1542 52.0664 17.8436C52.0664 18.5329 52.3532 18.9477 52.8475 18.9477C53.3455 18.9477 53.631 18.5329 53.631 17.8436C53.631 17.1542 53.3455 16.738 52.8475 16.738ZM54.8404 16.769H54.6244L54.1769 17.1545C54.1661 17.1642 54.1577 17.185 54.1626 17.2106L54.183 17.3657C54.1853 17.3937 54.2166 17.4119 54.2428 17.407L54.5153 17.3436V18.8554C54.5153 18.8846 54.5405 18.914 54.5741 18.914H54.8404C54.8716 18.914 54.8944 18.8846 54.8944 18.8554V16.8312C54.8944 16.8008 54.8716 16.769 54.8404 16.769Z" fill="white"/>
<mask id="mask0" mask-type="alpha" maskUnits="userSpaceOnUse" x="55" y="16" width="2" height="3">
<path d="M55.528 16.739H56.884V18.914H55.528V16.739Z" fill="white"/>
</mask>
<g mask="url(#mask0)">
<path fill-rule="evenodd" clip-rule="evenodd" d="M56.8081 18.5787H56.1411C56.3043 18.3675 56.5418 18.0699 56.6714 17.8771C56.7937 17.7025 56.8838 17.5708 56.8838 17.3671C56.8838 17.0266 56.6341 16.7386 56.1891 16.7386C55.8172 16.7386 55.576 17.0487 55.576 17.0487C55.5544 17.0742 55.5628 17.1133 55.5845 17.1303L55.7308 17.2828C55.756 17.3084 55.7908 17.3084 55.8149 17.2828C55.8891 17.2036 56.0128 17.0961 56.159 17.0961C56.3822 17.0961 56.4878 17.2413 56.4878 17.3829C56.4878 17.4903 56.429 17.6134 56.3342 17.7331C56.1243 18.0124 55.7331 18.5287 55.528 18.7812V18.8556C55.528 18.8849 55.5533 18.9143 55.5904 18.9143H56.8081C56.8429 18.9143 56.8693 18.8849 56.8693 18.8556V18.6385C56.8693 18.6067 56.8429 18.5787 56.8081 18.5787Z" fill="white"/>
</g>
<path fill-rule="evenodd" clip-rule="evenodd" d="M14.9844 2.77535C14.568 3.0108 13.7307 3.60393 13.0935 4.62393C12.4386 5.63186 12.027 6.99951 11.8542 8.30749C11.5388 10.9479 11.8326 13.3016 11.7773 13.2956C11.7247 13.2907 12.0294 15.6736 11.3071 18.1102C10.6473 20.5896 8.82251 22.7687 8.11461 23.3069C7.49079 23.8596 6.95923 24.2305 6.40979 24.5124C5.86754 24.7832 5.31208 25.0346 4.59097 24.9479C5.27497 25.2152 5.95145 25.0957 6.56942 24.893C7.19208 24.6771 7.80989 24.3172 8.47567 23.7267C9.23756 23.1519 11.1451 20.8691 11.8338 18.2714C12.592 15.6931 12.2753 13.2589 12.3258 13.2808C12.3797 13.2822 12.0978 10.9029 12.4001 8.38688C12.5693 7.13143 12.9616 5.8464 13.5579 4.92891C14.1409 3.9968 14.8787 3.47813 15.2627 3.26104C16.7 2.47887 17.6416 2.19939 19.0598 2.05302C17.6466 1.84188 16.5548 1.92977 14.9844 2.77535ZM35.1751 1.98072C33.7282 0.913118 32.0845 0.684808 32.1038 0.681238C32.1073 0.664068 30.5213 0.381018 28.8068 0.557988C27.0888 0.704528 25.2736 1.05592 24.6665 1.13514C23.5484 1.30599 22.9306 1.48041 21.9912 1.70855C22.9497 1.83673 23.6191 1.85254 24.7469 1.68781C25.36 1.61233 27.1824 1.26077 28.8487 1.11933C30.5213 0.948478 32.0053 1.21691 32.0006 1.23153C31.9874 1.23391 33.5231 1.44879 34.8571 2.44074C36.2343 3.37659 37.133 5.02372 37.2506 5.59611C37.5781 6.65997 37.7317 7.27248 37.8541 8.2425C38.0821 7.2956 38.1192 6.56358 37.7713 5.42033C37.6369 4.77246 36.6639 2.9861 35.1751 1.98072ZM30.5554 8.05854C29.5462 6.4211 27.802 5.33395 27.2922 4.95315C26.3048 4.2553 25.6604 3.98449 24.7726 3.50373C25.4588 4.28097 26.0024 4.7092 26.9789 5.41453C27.4947 5.79261 29.172 6.86276 30.0875 8.35995C30.5505 9.09809 30.823 9.89488 30.8601 10.4829C30.9034 11.0723 30.7676 11.4298 30.7725 11.4286C30.7725 11.4237 30.7016 11.7921 30.331 12.2339C29.9591 12.6803 29.2549 13.121 28.4485 13.4907C26.8433 14.219 24.9958 14.9988 24.4607 15.4367C23.4385 16.1371 22.9958 16.6704 22.295 17.417C23.2034 16.9534 23.7817 16.563 24.7594 15.9078C25.2525 15.5001 27.0257 14.7523 28.6851 14.0019C29.5056 13.6199 30.2938 13.1453 30.7449 12.6037C31.2044 12.0654 31.3004 11.5726 31.3004 11.5823C31.2969 11.5823 31.46 11.1345 31.4084 10.4391C31.3639 9.74239 31.0592 8.85278 30.5554 8.05854Z" fill="white"/>
<path fill-rule="evenodd" clip-rule="evenodd" d="M18.0552 7.54754C17.8223 7.4792 16.6526 7.7172 16.6611 7.78299C16.6635 7.78673 16.3696 7.89043 16.0971 8.11619C15.8128 8.33209 15.6197 8.68586 15.5693 8.80435C15.4793 9.02518 15.543 9.19093 15.6784 9.39119C15.8872 9.25451 15.9988 9.19348 16.0696 9.03606C16.1117 8.95684 16.2424 8.71153 16.4463 8.55411C16.6407 8.39057 16.8699 8.30166 16.8699 8.3003C16.8495 8.2527 17.8295 8.05635 18.048 8.10514C18.2376 8.10514 18.3467 8.01963 18.5326 7.86238C18.3898 7.66586 18.27 7.55723 18.0552 7.54754Z" fill="white"/>
<path fill-rule="evenodd" clip-rule="evenodd" d="M17.8671 8.28973C17.8167 8.37269 17.3524 8.5789 17.332 8.56802C17.3343 8.5789 16.7932 8.71813 16.6829 8.73258C16.5798 8.75213 16.5342 8.856 16.4681 9.04623C16.5821 9.21096 16.6614 9.29766 16.7705 9.28304C16.8989 9.2793 17.5083 9.111 17.5035 9.09876C17.4928 9.12919 18.1322 8.85838 18.2246 8.71813C18.3182 8.62769 18.3013 8.50325 18.2355 8.31659C18.0422 8.26406 17.9414 8.23363 17.8671 8.28973ZM16.9734 16.9022C16.7058 17.4707 16.0917 19.2424 15.7388 20.9178C15.3441 22.5967 15.2985 24.162 15.2673 24.1498C15.2902 24.1413 15.0202 25.6995 15.1858 27.4345C15.2734 29.1184 15.53 30.9974 15.746 31.6014C16.082 32.7215 16.5151 33.3352 17.2937 33.8903C16.773 33.0814 16.5895 32.5005 16.275 31.4513C16.0759 30.885 15.8301 29.0915 15.7341 27.3881C15.577 25.73 15.8347 24.2146 15.8133 24.2096C15.8491 24.2073 15.8948 22.6662 16.28 21.0422C16.6291 19.3951 17.2288 17.6648 17.4796 17.123C17.9439 16.1226 18.0999 15.5038 18.7621 14.8182C17.872 15.2195 17.4473 15.8711 16.9734 16.9022Z" fill="white"/>
<mask id="mask1" mask-type="alpha" maskUnits="userSpaceOnUse" x="20" y="19" width="4" height="16">
<path d="M20.939 19.519H23.357V34.39H20.939V19.519Z" fill="white"/>
</mask>
<g mask="url(#mask1)">
<path fill-rule="evenodd" clip-rule="evenodd" d="M23.1486 24.292C22.9495 22.9817 22.364 21.6405 22.1253 21.2283C21.746 20.4803 21.4366 20.0556 20.9386 19.5188C21.139 20.2423 21.2507 20.7035 21.6405 21.493C21.8637 21.8797 22.4131 23.1427 22.6003 24.3933C22.8198 25.6306 22.8019 26.7946 22.8091 26.7922C22.8091 26.7922 22.8186 27.9463 22.6988 29.2239C22.598 30.5013 22.3964 31.8764 22.3063 32.3291C22.1468 33.1625 22.1253 33.647 22.0688 34.39C22.4599 33.7603 22.6759 33.2906 22.8462 32.4328C22.947 31.968 23.1511 30.5599 23.2494 29.2703C23.3706 27.9781 23.3562 26.7871 23.3562 26.7885C23.3525 26.7885 23.3766 25.5927 23.1486 24.292Z" fill="white"/>
</g>
<path fill-rule="evenodd" clip-rule="evenodd" d="M35.9446 19.4018C35.575 18.4563 35.2031 17.5789 34.722 16.8698C35.0077 17.8217 35.2751 18.6649 35.6314 19.6007C35.8162 20.1022 36.1606 21.2443 36.3812 22.6962C36.6166 24.1421 36.3944 25.4842 36.3944 25.4819C36.4041 25.4819 36.2169 26.8106 35.7465 28.2258C35.2955 29.6412 34.6692 31.1542 34.4857 31.6753C34.2314 32.3646 33.9374 32.7417 33.845 33.2835C33.7875 33.9045 33.8294 33.7813 33.911 34.0497C34.374 33.3262 34.6453 32.81 34.9968 31.8754C35.1839 31.3678 35.8102 29.8488 36.2746 28.3979C36.7568 26.9532 36.95 25.5587 36.938 25.5563C36.9429 25.5636 37.1755 24.1506 36.9296 22.6095C36.6921 21.0722 36.1377 19.9154 35.9446 19.4018ZM45.8773 18.2672C45.4826 16.7787 45.1286 15.3913 45.1154 15.3937C45.0975 15.401 44.7819 13.9905 44.0045 12.5825C43.2655 11.1292 41.8533 10.0152 41.2462 9.80424C40.1677 9.46866 39.508 9.64444 38.716 10.0031C39.5824 9.98835 40.1629 10.0482 41.0507 10.3265C41.496 10.474 42.8419 11.5088 43.5259 12.8583C44.254 14.1771 44.5731 15.5609 44.5863 15.5523C44.602 15.5462 44.9404 16.9017 45.3434 18.4197C45.7201 19.9473 46.4867 21.5324 46.8276 22.0021C47.395 22.8879 47.8856 23.3381 48.6775 23.7237C48.1028 23.0539 47.8377 22.5571 47.2894 21.7019C46.9763 21.2565 46.2444 19.7717 45.8773 18.2672ZM40.2554 26.5812C39.8318 25.5343 39.6483 24.5118 39.6543 24.5118C39.6543 24.5118 39.4492 23.4929 39.4492 22.357C39.4731 21.2223 39.5475 19.9263 39.4875 19.4872C39.4239 18.6855 39.2163 18.2194 38.8168 17.6851C38.8912 18.3586 38.8852 18.7734 38.9368 19.5226C38.9897 19.9289 38.9176 21.1673 38.8984 22.3582C38.8984 23.554 39.1179 24.6166 39.1179 24.6166C39.1084 24.6131 39.2956 25.6904 39.7454 26.7972C40.1917 27.9099 40.9212 28.985 41.2092 29.3154C41.7153 29.939 42.14 30.1867 42.7604 30.4125C42.337 29.8902 42.0969 29.5449 41.6374 28.9642C41.3795 28.6603 40.6776 27.6294 40.2554 26.5812ZM1.32089 16.7083H0.0565291C0.0227637 16.7083 3.05176e-05 16.7375 3.05176e-05 16.7693V18.8545C3.05176e-05 18.8851 0.0227637 18.9144 0.0565291 18.9144H1.32089C1.35449 18.9144 1.37488 18.8851 1.37488 18.8545V18.596C1.37488 18.5654 1.35449 18.5373 1.32089 18.5373H0.400702V17.9845H1.16744C1.19853 17.9845 1.22729 17.9614 1.22729 17.926V17.6637C1.22729 17.6307 1.19853 17.605 1.16744 17.605H0.400702V17.0854H1.32089C1.35449 17.0854 1.37488 17.0573 1.37488 17.0255V16.7693C1.37488 16.7375 1.35449 16.7083 1.32089 16.7083ZM2.67617 17.6103C2.42544 17.5066 2.31027 17.4079 2.31027 17.2578C2.31027 17.1552 2.40388 17.0369 2.58374 17.0369C2.75173 17.0369 2.99042 17.193 3.01332 17.2102C3.04926 17.2346 3.09974 17.2102 3.12131 17.1722L3.24015 16.9929C3.26155 16.9587 3.25319 16.9076 3.21959 16.8856C3.15842 16.8392 2.91604 16.6782 2.60179 16.6782C2.10617 16.6782 1.90592 17.0028 1.90592 17.2834C1.90592 17.653 2.1951 17.8434 2.48662 17.9629C2.74688 18.0704 2.8801 18.1814 2.8801 18.3412C2.8801 18.4778 2.75891 18.5841 2.59945 18.5841C2.39535 18.5841 2.14596 18.3986 2.13141 18.3888C2.10383 18.3668 2.04984 18.3668 2.02477 18.4107L1.91561 18.6072C1.8867 18.6572 1.89756 18.673 1.92865 18.7C1.99 18.7621 2.21783 18.9477 2.61015 18.9477C3.04692 18.9477 3.32524 18.6463 3.32524 18.3218C3.32524 17.9167 2.97856 17.7336 2.67617 17.6103ZM4.66907 18.8549V17.0857H5.14295C5.17772 17.0857 5.20062 17.0576 5.20062 17.0258V16.7696C5.20062 16.7379 5.17772 16.7074 5.14295 16.7074H3.78832C3.75489 16.7074 3.72848 16.7379 3.72848 16.7696V17.0258C3.72848 17.0576 3.75489 17.0857 3.78832 17.0857H4.26221V18.8549C4.26221 18.8855 4.28979 18.9147 4.32105 18.9147H4.60789C4.64032 18.9147 4.66907 18.8855 4.66907 18.8549ZM5.89057 16.9913H6.10052C6.34657 16.9913 6.52643 17.189 6.52643 17.4414C6.52643 17.6917 6.34657 17.8906 6.10052 17.8906H5.89057V16.9913ZM5.58819 18.2212H6.12459C6.54565 18.2212 6.88999 17.871 6.88999 17.4414C6.88999 17.0108 6.54565 16.6618 6.12459 16.6618H5.58819C5.56545 16.6618 5.54991 16.6825 5.54991 16.7045V18.1797C5.54991 18.2005 5.56545 18.2212 5.58819 18.2212Z" fill="white"/>
<mask id="mask2" mask-type="alpha" maskUnits="userSpaceOnUse" x="0" y="0" width="57" height="35">
<path d="M0 34.39H56.883V0.5H0V34.39Z" fill="white"/>
</mask>
<g mask="url(#mask2)">
<path fill-rule="evenodd" clip-rule="evenodd" d="M5.478 18.927H6.767V18.698H5.478V18.927Z" fill="white"/>
</g>
</svg>
